HIERARCHY
ROOT Hips
{
	OFFSET 0.000000 0.000000 0.000000 
	CHANNELS 6 Xposition Yposition Zposition Zrotation Yrotation Xrotation
	JOINT LeftUpLeg
	{
		OFFSET 1.363060 -1.794630 0.839290 
		CHANNELS 3 Zrotation Yrotation Xrotation
		JOINT LeftLeg
		{
			OFFSET 2.448110 -6.726130 0.000000 
			CHANNELS 3 Zrotation Yrotation Xrotation
			JOINT LeftFoot
			{
				OFFSET 2.562200 -7.039590 0.000000 
				CHANNELS 3 Zrotation Yrotation Xrotation
				JOINT LeftToeBase
				{
					OFFSET 0.157640 -0.433110 2.322550 
					CHANNELS 3 Zrotation Yrotation Xrotation
					End Site
					{
						OFFSET 0.000000 0.000000 0.000000 
					}
				}
			}
		}
	}
	JOINT RightUpLeg
	{
		OFFSET -1.305520 -1.794630 0.839290 
		CHANNELS 3 Zrotation Yrotation Xrotation
		JOINT RightLeg
		{
			OFFSET -2.542530 -6.985550 0.000000 
			CHANNELS 3 Zrotation Yrotation Xrotation
			JOINT RightFoot
			{
				OFFSET -2.568260 -7.056230 0.000000 
				CHANNELS 3 Zrotation Yrotation Xrotation
				JOINT RightToeBase
				{
					OFFSET -0.164730 -0.452590 2.363150 
					CHANNELS 3 Zrotation Yrotation Xrotation
					End Site
					{
						OFFSET 0.000000 0.000000 0.000000 
					}
				}
			}
		}
	}
	JOINT Spine
	{
		OFFSET 0.028270 2.035590 -0.193380 
		CHANNELS 3 Zrotation Yrotation Xrotation
		JOINT Spine1
		{
			OFFSET 0.056720 2.048850 -0.042750 
			CHANNELS 3 Zrotation Yrotation Xrotation
			JOINT Neck1
			{
				OFFSET -0.054170 1.746240 0.172020 
				CHANNELS 3 Zrotation Yrotation Xrotation
				JOINT Head
				{
					OFFSET 0.104070 1.761360 -0.123970 
					CHANNELS 3 Zrotation Yrotation Xrotation
					End Site
					{
						OFFSET 0.000000 0.000000 0.000000 
					}
				}
			}
			JOINT LeftArm
			{
				OFFSET 3.362410 1.200890 -0.311210 
				CHANNELS 3 Zrotation Yrotation Xrotation
				JOINT LeftForeArm
				{
					OFFSET 4.983000 -0.000000 -0.000000 
					CHANNELS 3 Zrotation Yrotation Xrotation
					JOINT LeftHand
					{
						OFFSET 3.483560 -0.000000 -0.000000 
						CHANNELS 3 Zrotation Yrotation Xrotation
						JOINT LeftHandIndex1
						{
							OFFSET 0.715260 -0.000000 -0.000000 
							CHANNELS 3 Zrotation Yrotation Xrotation
							End Site
							{
								OFFSET 0.000000 0.000000 0.000000 
							}
						}
					}
				}
			}
			JOINT RightArm
			{
				OFFSET -3.136600 1.374050 -0.404650 
				CHANNELS 3 Zrotation Yrotation Xrotation
				JOINT RightForeArm
				{
					OFFSET -5.241900 -0.000000 -0.000000 
					CHANNELS 3 Zrotation Yrotation Xrotation
					JOINT RightHand
					{
						OFFSET -3.444170 -0.000000 -0.000000 
						CHANNELS 3 Zrotation Yrotation Xrotation
						JOINT RightHandIndex1
						{
							OFFSET -0.622530 -0.000000 -0.000000 
							CHANNELS 3 Zrotation Yrotation Xrotation
							End Site
							{
								OFFSET 0.000000 0.000000 0.000000 
							}
						}
					}
				}
			}
		}
	}
}
MOTION
Frames: 15
Frame Time: 0.041667
8.336989 17.790902 10.394202 -177.052602 -42.490513 -174.486714 -10.452046 11.771339 -24.927307 4.769532 14.172257 42.568448 -2.015822 12.825946 -11.762625 0.002000 0.286800 0.788100 30.617347 -14.779078 -21.973460 -2.611606 -10.820792 30.844091 -0.290140 -15.648591 -33.658246 -3.459200 -11.403700 33.653700 0.211978 6.340968 -2.708487 -0.137366 3.613202 0.113578 -0.463230 3.775834 20.766913 1.165700 0.467100 10.783800 -71.889983 -3.093290 16.035450 17.175284 -31.563339 -5.194983 0.794871 -0.890914 3.001225 -7.125000 0.000000 0.000000 76.212864 -7.861213 16.464770 -15.236349 24.789846 -3.258745 -0.125405 -0.299104 -11.327381 7.125000 0.000000 0.000000 
8.320114 17.788606 10.443129 -177.271230 -43.964795 -174.042195 -11.011457 12.102747 -25.124918 4.569919 13.983620 41.821614 -2.030110 12.867803 -11.768987 0.524400 -4.640900 -12.887200 30.443564 -15.046805 -23.248078 -2.769609 -11.086088 31.755608 -1.537551 -12.968034 -37.405000 -5.159800 -13.561600 41.508800 0.172934 6.263877 -2.762930 -0.466908 3.584267 0.131115 -0.657050 4.097807 20.730339 1.157300 0.584000 10.729100 -71.945411 -3.037615 14.541399 16.957877 -31.275552 -5.072802 0.808983 -0.889957 3.287420 -7.125000 0.000000 0.000000 76.451243 -7.794371 16.627943 -15.482343 25.155494 -3.358735 -0.125044 -0.302259 -11.308664 7.125000 0.000000 0.000000 
8.297748 17.775725 10.492954 -177.433612 -45.783019 -173.695862 -11.457742 12.091400 -25.101728 4.250364 13.675413 40.669311 -1.659763 11.358554 -12.649961 0.551600 -4.758000 -13.219500 30.343056 -15.685285 -24.619374 -2.957604 -11.390257 32.778061 -2.220542 -11.726678 -39.541638 -6.026500 -14.454000 45.088100 0.117862 6.199783 -2.822121 -0.927272 3.563002 0.145028 -0.697122 4.279309 20.838859 1.174800 0.657700 10.754900 -71.989225 -3.196023 13.213817 16.560581 -30.746296 -4.848176 0.815085 -0.895225 3.623382 -7.125000 0.000000 0.000000 76.804788 -7.984136 16.716564 -15.815516 25.639787 -3.496749 -0.125742 -0.307692 -11.652766 7.125000 0.000000 0.000000 
8.282271 17.755056 10.516219 -178.402801 -47.580547 -173.355978 -12.241755 12.402516 -24.564250 3.966252 13.376296 39.552699 -1.222580 9.373990 -12.623881 0.237800 -3.138500 -8.664500 29.499972 -16.571972 -25.054994 -3.138779 -11.682687 33.748910 -2.570685 -11.278711 -40.768753 -6.440000 -14.841600 46.723000 0.085294 6.122989 -2.726182 -0.765828 3.520833 0.418829 -0.653799 4.447702 21.069704 1.245700 0.708800 10.955500 -72.158602 -3.558781 12.310375 16.292390 -30.414193 -4.716008 0.822733 -0.893588 3.728621 -7.125000 0.000000 0.000000 76.657771 -7.706035 17.636997 -16.120721 26.033626 -3.618276 -0.114510 -0.316701 -12.933894 7.125000 0.000000 0.000000 
8.270189 17.740078 10.528800 -178.998759 -49.407803 -172.933140 -12.679336 12.534651 -24.341357 3.669125 13.044295 38.321037 -0.994361 8.226493 -12.297118 0.173600 -2.683600 -7.399100 29.099128 -16.844970 -25.655248 -3.346580 -12.006199 34.848821 -2.710504 -11.542789 -41.634125 -6.406700 -14.811200 46.592800 0.167769 5.836536 -2.679171 -0.171116 3.367428 0.729664 -0.687932 4.819335 21.190443 1.356900 0.815300 11.043300 -72.604621 -3.602139 11.167632 16.129144 -30.240520 -4.649986 0.823988 -0.893631 3.955086 -7.125000 0.000000 0.000000 75.831640 -7.042656 19.556710 -16.153162 26.054052 -3.621398 -0.111673 -0.309820 -14.531214 7.125000 0.000000 0.000000 
8.250020 17.730593 10.584916 -179.000803 -50.866305 -172.806539 -12.892524 12.443024 -24.192656 3.352177 12.688893 37.024029 -0.971206 8.144314 -12.492826 0.194800 -2.842300 -7.839900 29.015270 -16.896530 -26.623433 -3.576894 -12.352098 36.040102 -2.340021 -13.038447 -41.296363 -5.811300 -14.242900 44.219500 0.171343 5.870981 -2.738840 -0.394624 3.393254 0.603506 -0.689227 5.045603 21.214263 1.451600 0.884400 11.026700 -72.852524 -3.456510 10.304421 16.043556 -30.097267 -4.588764 0.823580 -0.895618 4.082554 -7.125000 0.000000 0.000000 75.824625 -7.399357 19.534822 -16.924533 27.075287 -3.934970 -0.112586 -0.310980 -14.529362 7.125000 0.000000 0.000000 
8.226954 17.719010 10.646224 -179.985915 -52.410224 -171.587570 -13.801474 12.019078 -24.287698 3.051384 12.363689 35.834407 -0.900757 7.882293 -12.743122 0.161400 -2.588700 -7.135700 28.325022 -17.114975 -28.155850 -3.838379 -12.721356 37.319174 -1.522379 -15.561105 -39.928300 -4.877300 -13.244300 40.289900 0.020628 6.104497 -2.819411 -0.887276 3.527049 0.568106 -0.729382 4.989250 21.230517 1.418800 0.873600 11.060900 -72.703124 -3.585206 10.024048 15.889131 -29.861203 -4.486945 0.834618 -0.892450 4.126118 -7.125000 0.000000 0.000000 76.327044 -7.961229 19.110546 -17.719242 28.105734 -4.279096 -0.098632 -0.329512 -14.681482 7.125000 0.000000 0.000000 
8.215971 17.695246 10.685864 179.220851 -54.198016 -171.734533 -14.140586 11.681779 -22.983383 2.802743 12.055653 34.743551 -0.673773 6.861826 -12.795555 0.119100 -2.224900 -6.127700 27.443300 -17.893848 -28.169964 -4.134490 -13.124882 38.701640 -0.590134 -18.288277 -38.329096 -3.999500 -12.159700 36.299300 -0.002842 6.129022 -2.726519 -0.973569 3.533075 0.462719 -0.983713 5.045423 21.178565 1.299800 0.890200 11.114000 -72.649551 -3.892303 9.548867 15.642335 -29.503846 -4.340015 0.830753 -0.893971 4.417211 -7.125000 0.000000 0.000000 76.385074 -8.106123 19.512216 -18.253533 28.736125 -4.513547 -0.080138 -0.350349 -15.237135 7.125000 0.000000 0.000000 
8.200793 17.682864 10.718415 178.674760 -55.972012 -171.475412 -14.264143 10.804645 -22.088137 2.593130 11.791787 33.816578 -0.451010 5.831257 -12.804732 0.081100 -1.836600 -5.054200 26.799127 -18.001338 -28.737103 -4.518093 -13.600409 40.392116 0.277187 -20.807899 -36.934270 -3.114400 -10.878000 31.869400 0.042754 6.046329 -2.673225 -0.777418 3.486092 0.617540 -1.110787 5.172905 21.125382 1.296900 0.923500 11.107000 -72.970373 -4.195503 8.900354 15.371970 -29.131008 -4.175198 0.811921 -0.902434 4.798015 -7.125000 0.000000 0.000000 75.965086 -7.918214 20.222099 -18.582507 29.134307 -4.658654 -0.074739 -0.351167 -16.165140 7.125000 0.000000 0.000000 
8.182920 17.673978 10.742280 175.935141 -58.093220 -169.271479 -15.487601 9.745311 -21.327368 2.423502 11.587562 33.086940 -0.174014 4.484400 -12.634300 0.101100 -2.050600 -5.645600 24.869787 -18.400865 -29.384252 -4.957405 -14.098252 42.250936 0.805618 -22.285966 -36.070908 -2.598900 -10.015500 29.027100 -0.043691 5.787882 -2.669200 -0.465560 3.347537 0.596900 -1.047980 5.231813 21.156626 1.318600 0.963500 11.069900 -73.050936 -4.256091 8.504877 15.099575 -28.749910 -3.996942 0.784247 -0.909254 4.955956 -7.125000 0.000000 0.000000 76.056211 -8.094746 19.942016 -19.062948 29.713721 -4.868998 -0.079166 -0.346332 -16.214062 7.125000 0.000000 0.000000 
8.163350 17.633039 10.921511 173.431321 -59.332782 -167.659067 -17.133191 8.165843 -20.537915 2.308489 11.489810 32.705841 -0.184301 4.560604 -12.676565 0.101900 -2.058000 -5.666100 22.483489 -19.195687 -30.324217 -5.473160 -14.621187 44.299904 1.370462 -22.888967 -33.771429 -2.376000 -9.608800 27.719000 -0.262889 5.774077 -2.724932 -1.784341 3.357498 -0.174443 -1.302384 5.559901 21.274187 1.259300 1.082800 11.055900 -73.016284 -3.856154 7.903248 14.985224 -28.458288 -3.869323 0.773934 -0.914819 4.921320 -7.125000 0.000000 0.000000 76.178275 -8.535592 19.738926 -19.634521 30.422359 -5.141961 -0.091257 -0.362045 -15.924480 7.125000 0.000000 0.000000 
8.170539 17.618361 11.001690 172.187666 -61.254775 -166.887046 -17.460155 7.137672 -20.202396 2.274061 11.429973 32.501955 -0.074756 3.695470 -11.620923 0.093000 -1.967100 -5.414900 21.445321 -19.448030 -30.923863 -5.975212 -15.099573 46.271468 1.682600 -23.591220 -33.002277 -2.324100 -9.510900 27.406900 -0.228734 5.445087 -2.753595 -1.925310 3.190260 -0.567670 -1.737507 6.003117 21.332174 1.146300 1.214300 11.043200 -73.265836 -3.561568 7.206914 14.825262 -28.215845 -3.803603 0.789081 -0.914930 4.995412 -7.125000 0.000000 0.000000 75.753177 -8.497879 20.311107 -20.025279 30.852771 -5.319192 -0.091627 -0.368670 -16.499488 7.125000 0.000000 0.000000 
8.179126 17.626848 11.015669 171.085499 -63.631426 -165.960002 -17.323493 6.301712 -20.110278 2.276799 11.393947 32.407651 0.150011 2.158152 -10.333772 0.089000 -1.924400 -5.296700 20.884322 -19.515677 -31.328293 -6.459902 -15.537381 48.153164 1.670458 -23.655396 -33.201057 -2.600400 -10.018200 29.035600 -0.206294 5.224925 -2.730320 -1.902365 3.077091 -0.464289 -2.128659 6.109371 21.385788 0.955000 1.237300 11.124500 -73.196420 -3.952188 7.086480 14.518458 -27.808741 -3.675159 0.803507 -0.914732 5.290365 -7.125000 0.000000 0.000000 75.651208 -8.093835 20.486956 -20.113618 30.954846 -5.362986 -0.084189 -0.372198 -17.080292 7.125000 0.000000 0.000000 
8.181822 17.608676 10.993602 169.281343 -66.370373 -164.431956 -17.214008 5.737037 -19.840892 2.259081 11.305859 32.166643 0.491684 -0.032268 -9.177523 0.099900 -2.038300 -5.611600 20.290909 -19.967888 -31.333268 -6.902190 -15.915670 49.834570 1.486810 -23.008939 -33.325749 -3.011000 -10.712900 31.317500 -0.204691 4.894784 -2.676318 -1.757759 2.902895 -0.184096 -2.025424 6.041244 21.495647 0.968500 1.229400 11.223300 -72.986399 -4.400807 7.046798 14.193951 -27.375629 -3.512293 0.797120 -0.921236 5.915636 -7.125000 0.000000 0.000000 76.102079 -7.752398 19.902559 -20.047740 30.895935 -5.339261 -0.084945 -0.370984 -16.807469 7.125000 0.000000 0.000000 
8.182621 17.574926 10.951466 165.383584 -68.869857 -160.956537 -17.764547 5.242743 -19.401661 2.214705 11.185824 31.818394 0.802906 -2.107465 -8.380699 0.153200 -2.521800 -6.950200 18.963686 -20.248326 -31.083789 -7.318955 -16.254063 51.381065 1.262371 -21.964733 -33.111758 -3.562000 -11.553500 34.170200 -0.138195 4.310855 -2.650681 -0.695245 2.580549 -0.072909 -1.694387 6.191799 21.602112 1.166800 1.293300 11.240100 -72.947450 -4.460808 6.708092 13.820042 -26.909937 -3.347580 0.785535 -0.923461 6.203051 -7.125000 0.000000 0.000000 76.312014 -7.640384 19.431625 -20.257896 31.103234 -5.425652 -0.090420 -0.360227 -15.996743 7.125000 0.000000 0.000000 
